<?xml version="1.0" encoding="iso-8859-1"?>
<!-- Generator: Adobe Illustrator 16.0.0, SVG Export Plug-In . SVG Version: 6.00 Build 0)  -->
<!DOCTYPE svg PUBLIC "-//W3C//DTD SVG 1.0//EN" "http://www.w3.org/TR/2001/REC-SVG-20010904/DTD/svg10.dtd">
<svg version="1.0" id="Layer_1" xmlns="http://www.w3.org/2000/svg" xmlns:xlink="http://www.w3.org/1999/xlink" x="0px" y="0px"
	 width="1190.55px" height="648.22px" viewBox="0 0 1190.55 648.22" enable-background="new 0 0 1190.55 648.22"
	 xml:space="preserve">
<linearGradient id="SVGID_1_" gradientUnits="userSpaceOnUse" x1="295.54" y1="578.9063" x2="473.1743" y2="578.9063">
	<stop  offset="0" style="stop-color:#EDE080"/>
	<stop  offset="0.3011" style="stop-color:#EDE080"/>
	<stop  offset="1" style="stop-color:#9B8430"/>
</linearGradient>
<path fill="url(#SVGID_1_)" d="M472.139,632.97c-2.05,2.487-5.192,4.68-9.446,6.563c-5.796,2.624-12.147,3.94-19.053,3.94
	c-24.291,0-39.337-12.609-45.141-37.779c-2.375-10.074-4.435-16.681-6.219-19.826c-4.744-7.91-12.668-12.411-23.775-13.523
	l-17.137,39.161h16.481c0.885,0,1.324,0.372,1.324,1.161c0,0.828-0.668,1.243-1.979,1.243h-47.043c-0.998,0-1.507-0.317-1.507-0.97
	c0-0.944,0.619-1.435,1.821-1.435h15.662l38.846-88.258h14.916l-20.046,46.263c13.912,0.367,25.729-1.466,35.456-5.518
	c11.653-4.893,17.989-12.219,19.045-22.04c0.771-7.631-2.545-13.739-9.94-18.327c-7.386-4.586-18.061-6.867-31.966-6.867
	c-22.98,0-42.544,5.606-58.734,16.849c-14.794,10.175-22.889,21.697-24.272,34.599c-0.546,6.077,1.032,11.101,4.767,15.046
	c3.729,3.965,9.261,6.259,16.609,6.911c1.492,0.181,2.234,0.759,2.234,1.722c0,0.838-0.661,1.243-1.991,1.243
	c-6.461-0.187-12.175-2.151-17.138-5.941c-6.364-4.687-9.096-11.02-8.21-18.98c1.489-14.499,10.749-27.109,27.759-37.799
	c17.001-10.709,36.823-16.065,59.461-16.065c14.701,0,26.512,2.562,35.452,7.695c8.95,5.139,13.035,11.775,12.271,19.916
	c-1.166,10.001-8.241,17.707-21.212,23.146c-10.329,4.363-21.32,6.594-32.966,6.693c16.948,3.182,29.135,17.222,36.525,42.118
	c2.601,8.887,6.025,15.493,10.276,19.825c5.239,4.973,12.091,7.451,20.531,7.451c10.56,0,19.219-3.28,26.021-9.869
	c0.547-0.553,1.203-0.825,1.979-0.825C473.507,630.491,473.627,631.316,472.139,632.97"/>
<linearGradient id="SVGID_2_" gradientUnits="userSpaceOnUse" x1="424.6704" y1="570.8867" x2="465.2544" y2="570.8867">
	<stop  offset="0" style="stop-color:#EDE080"/>
	<stop  offset="0.3011" style="stop-color:#EDE080"/>
	<stop  offset="1" style="stop-color:#9B8430"/>
</linearGradient>
<path fill="url(#SVGID_2_)" d="M462.86,587.048c0,0.286-0.108,0.603-0.338,0.976c-9.279,17.987-18.213,26.986-26.835,26.986
	c-3.583,0-6.411-1.536-8.453-4.618c-1.706-2.529-2.563-5.419-2.563-8.633c0-3.958,1.197-8.539,3.571-13.735l13.75-29.843
	c0.211-0.634,0.326-1.2,0.326-1.653c0-1.79-1.075-2.696-3.235-2.696h-6.463c-1.109,0-1.656-0.381-1.656-1.177
	c0-0.825,0.509-1.229,1.51-1.229h22.013c1.94,0,2.906,0.788,2.906,2.405c0,0.384-0.118,0.845-0.33,1.379
	c-5.531,11.976-12.255,26.587-20.205,43.852c-1.998,4.605-2.998,7.756-2.998,9.479c0,2.436,1.246,3.66,3.729,3.66
	c5.416,0,12.765-8.396,22.044-25.152c0.435-0.875,1.044-1.305,1.815-1.305C462.389,585.743,462.86,586.173,462.86,587.048
	 M465.176,534.017c-0.227,2.53-1.222,4.681-3.023,6.42c-1.793,1.759-3.931,2.623-6.42,2.623c-2.151,0-3.9-0.758-5.258-2.28
	c-1.354-1.517-1.914-3.307-1.69-5.376c0.215-2.442,1.259-4.499,3.099-6.153c1.852-1.653,4.049-2.486,6.582-2.486
	c2.271,0,4.021,0.696,5.26,2.069C464.968,530.22,465.461,531.94,465.176,534.017z"/>
<linearGradient id="SVGID_3_" gradientUnits="userSpaceOnUse" x1="461.2041" y1="582.1504" x2="530.4531" y2="582.1504">
	<stop  offset="0" style="stop-color:#EDE080"/>
	<stop  offset="0.3011" style="stop-color:#EDE080"/>
	<stop  offset="1" style="stop-color:#9B8430"/>
</linearGradient>
<path fill="url(#SVGID_3_)" d="M530.453,562.742c0,11.696-5.335,24.033-15.994,37.015c-8.107,9.982-16.261,14.99-24.43,14.99
	c-4.973,0-9.198-2.124-12.679-6.351c-3.086-3.866-4.627-7.967-4.627-12.287c0-4.953,2.819-11.92,8.484-20.97
	c5.658-9.041,8.49-15.256,8.49-18.612c0-2.566-1.299-3.873-3.894-3.873c-2.029,0-4.031,0.766-5.969,2.295
	c-4.024,3.131-8.254,8.353-12.66,15.667c-0.622,1.162-1.585,2.859-2.902,5.121c-0.451,0.629-1.028,0.951-1.75,0.951
	c-0.883,0-1.318-0.367-1.318-1.094c0-3.139,3.067-8.036,9.199-14.718c6.503-7.09,12.032-10.627,16.565-10.627
	c3.748,0,6.693,1.479,8.863,4.426c1.815,2.517,2.725,5.443,2.725,8.764c0,4.959-2.526,11.913-7.573,20.8
	c-5.053,8.925-7.572,15.748-7.572,20.484c0,5.208,2.588,7.805,7.768,7.805c4.202,0,8.981-2.41,14.341-7.265
	c5.739-5.276,10.652-11.533,14.732-18.763c4.422-7.824,6.637-15.002,6.637-21.546c0-3.177-0.746-4.773-2.24-4.773
	c-0.333,0-0.988,1.187-1.955,3.536c-0.96,2.35-2.915,3.512-5.83,3.512c-4.761,0-7.128-2.579-7.128-7.731
	c0-2.579,0.963-4.872,2.858-6.905c1.908-2.024,4.354-3.038,7.337-3.038c3.691,0,6.454,1.521,8.274,4.568
	C529.701,556.459,530.453,559.337,530.453,562.742"/>
<linearGradient id="SVGID_4_" gradientUnits="userSpaceOnUse" x1="532.8398" y1="582.7695" x2="590.3306" y2="582.7695">
	<stop  offset="0" style="stop-color:#EDE080"/>
	<stop  offset="0.3011" style="stop-color:#EDE080"/>
	<stop  offset="1" style="stop-color:#9B8430"/>
</linearGradient>
<path fill="url(#SVGID_4_)" d="M590.331,562.742c0,11.696-14.133,19.801-42.411,24.306c-2.15,5.06-3.226,9.883-3.226,14.433
	c0,3.095,0.948,5.667,2.819,7.736c1.87,2.075,4.608,3.101,8.192,3.101c9.164,0,18.009-6.443,26.519-19.333
	c0.885-1.512,2.234-3.729,4.04-6.626c0.338-0.603,0.867-0.9,1.585-0.9c0.885,0,1.33,0.392,1.33,1.174
	c0,0.286-0.056,0.554-0.178,0.833c-3.753,7.271-8.222,13.362-13.415,18.229c-6.783,6.401-13.968,9.595-21.534,9.595
	c-6.345,0-11.531-2.299-15.562-6.892c-3.76-4.245-5.65-9.098-5.65-14.581c0-9.34,4.428-18.748,13.263-28.227
	c9.285-10.242,19.39-15.339,30.316-15.339c4.093,0,7.427,1.193,10.024,3.623C589.032,556.292,590.331,559.243,590.331,562.742
	 M581.396,559.498c0-4.648-2.374-6.979-7.133-6.979c-8.173,0-16.644,10.614-25.425,31.838c8.107-0.547,15.4-3.15,21.867-7.8
	C577.833,571.686,581.396,565.993,581.396,559.498z"/>
<linearGradient id="SVGID_5_" gradientUnits="userSpaceOnUse" x1="586.1167" y1="582.0801" x2="649.7207" y2="582.0801">
	<stop  offset="0" style="stop-color:#EDE080"/>
	<stop  offset="0.3011" style="stop-color:#EDE080"/>
	<stop  offset="1" style="stop-color:#9B8430"/>
</linearGradient>
<path fill="url(#SVGID_5_)" d="M649.721,559.156c0,3.307-1.113,6.277-3.313,8.875c-2.201,2.598-4.761,3.896-7.695,3.896
	c-1.826,0-3.361-0.535-4.605-1.616c-1.224-1.094-1.852-2.424-1.852-4.053c0-3.387,2.542-6.375,7.613-8.894
	c1.38-0.794,2.063-1.547,2.063-2.292c0-1.33-0.907-2.002-2.735-2.002c-6.338,0-14.151,8.732-23.43,26.172
	c-1.776,3.317-7.072,14.86-15.903,34.666h-13.748l22.201-51.304c1.148-2.778,1.732-4.686,1.732-5.799
	c0-1.977-1.411-2.976-4.226-2.976h-6.639c-1.028,0-1.556-0.381-1.556-1.177c0-0.825,0.575-1.229,1.743-1.229h22.36
	c2.039,0,2.648,1.023,1.902,3.1c-3.648,8.937-6.713,16.047-9.198,21.342c4.426-7.563,7.855-12.783,10.348-15.686
	c5.426-6.624,10.858-9.932,16.326-9.932c2.492,0,4.537,0.826,6.172,2.475C648.905,554.396,649.721,556.527,649.721,559.156"/>
<linearGradient id="SVGID_6_" gradientUnits="userSpaceOnUse" x1="642.9385" y1="582.6299" x2="704.6455" y2="582.6299">
	<stop  offset="0" style="stop-color:#EDE080"/>
	<stop  offset="0.3011" style="stop-color:#EDE080"/>
	<stop  offset="1" style="stop-color:#9B8430"/>
</linearGradient>
<path fill="url(#SVGID_6_)" d="M704.646,564.127c0,2.431-0.9,4.507-2.689,6.21c-1.803,1.703-3.94,2.561-6.427,2.561
	c-2.149,0-3.958-0.597-5.418-1.759c-1.462-1.169-2.202-2.579-2.202-4.183c0-2.896,2.083-4.886,6.216-5.929
	c2.15-0.46,3.231-1.274,3.231-2.437c0-1.61-1.355-3.008-4.064-4.245c-2.703-1.218-5.755-1.826-9.124-1.826
	c-5.232,0-9.707,1.161-13.448,3.492c-3.729,2.33-5.587,5.171-5.587,8.533c0,1.97,0.938,3.785,2.814,5.443
	c1.871,1.66,6.42,4.059,13.661,7.186c5.748,2.441,9.795,4.871,12.095,7.258c2.323,2.386,3.492,5.289,3.492,8.695
	c0,5.935-3.032,11.075-9.08,15.413c-6.047,4.318-13.237,6.47-21.571,6.47c-6.675,0-12.293-1.493-16.823-4.525
	c-4.539-3.002-6.782-6.68-6.782-11.006c0-2.711,1.02-5.041,3.059-6.967c2.039-1.934,4.474-2.908,7.283-2.908
	c5.201,0,7.787,2.181,7.787,6.506c0,3.573-2.317,5.842-6.954,6.75c-2.597,0.608-3.884,1.454-3.884,2.554
	c0,1.809,1.634,3.4,4.928,4.811c3.27,1.404,6.962,2.094,11.05,2.094c5.644,0,10.392-1.279,14.282-3.859
	c3.909-2.584,5.848-5.805,5.848-9.656c0-4.153-3.038-7.607-9.104-10.373l-9.695-4.345c-7.905-3.592-11.858-8.271-11.858-14.016
	c0-5.573,2.717-10.266,8.122-14.095c5.427-3.815,11.964-5.724,19.646-5.724c6.009,0,11.037,1.331,15.101,3.965
	C702.614,556.863,704.646,560.163,704.646,564.127"/>
<linearGradient id="SVGID_7_" gradientUnits="userSpaceOnUse" x1="706.2061" y1="570.8867" x2="746.7959" y2="570.8867">
	<stop  offset="0" style="stop-color:#EDE080"/>
	<stop  offset="0.3011" style="stop-color:#EDE080"/>
	<stop  offset="1" style="stop-color:#9B8430"/>
</linearGradient>
<path fill="url(#SVGID_7_)" d="M744.396,587.048c0,0.286-0.105,0.603-0.323,0.976c-9.278,17.987-18.229,26.986-26.842,26.986
	c-3.586,0-6.389-1.536-8.465-4.618c-1.69-2.529-2.561-5.419-2.561-8.633c0-3.958,1.182-8.539,3.581-13.735l13.734-29.843
	c0.235-0.634,0.336-1.2,0.336-1.653c0-1.79-1.07-2.696-3.233-2.696h-6.457c-1.106,0-1.653-0.381-1.653-1.177
	c0-0.825,0.479-1.229,1.486-1.229h22.037c1.934,0,2.909,0.788,2.909,2.405c0,0.384-0.13,0.845-0.335,1.379
	c-5.531,11.976-12.269,26.587-20.211,43.852c-1.989,4.605-2.982,7.756-2.982,9.479c0,2.436,1.23,3.66,3.728,3.66
	c5.406,0,12.754-8.396,22.025-25.152c0.435-0.875,1.057-1.305,1.827-1.305C743.931,585.743,744.396,586.173,744.396,587.048
	 M746.727,534.017c-0.223,2.53-1.229,4.681-3.032,6.42c-1.803,1.759-3.939,2.623-6.413,2.623c-2.151,0-3.903-0.758-5.257-2.28
	c-1.356-1.517-1.941-3.307-1.692-5.376c0.212-2.442,1.244-4.499,3.084-6.153c1.863-1.653,4.058-2.486,6.599-2.486
	c2.263,0,4.003,0.696,5.258,2.069C746.517,530.22,746.987,531.94,746.727,534.017z"/>
<linearGradient id="SVGID_8_" gradientUnits="userSpaceOnUse" x1="746.8896" y1="567.2979" x2="829.5166" y2="567.2979">
	<stop  offset="0" style="stop-color:#EDE080"/>
	<stop  offset="0.3011" style="stop-color:#EDE080"/>
	<stop  offset="1" style="stop-color:#9B8430"/>
</linearGradient>
<path fill="url(#SVGID_8_)" d="M828.813,524.415l-30.906,76.367c-0.988,2.549-1.485,4.886-1.485,7.056c0,2.809,1.18,4.22,3.555,4.22
	c5.637,0,12.753-8.335,21.366-25.01c0.441-0.875,1.081-1.305,1.914-1.305c0.883,0,1.317,0.43,1.317,1.305
	c-0.099,0.38-0.224,0.685-0.323,0.976c-9.16,17.987-17.699,26.986-25.604,26.986c-3.293,0-5.984-1.213-8.03-3.66
	c-1.876-2.164-2.814-4.638-2.814-7.452c0-2.947,0.714-6.252,2.149-9.932c-8.109,14.032-16.599,21.044-25.419,21.044
	c-5.637,0-10.099-2.201-13.429-6.613c-2.822-3.778-4.214-8.153-4.214-13.132c0-13.015,6.574-25.245,19.706-36.674
	c6.396-5.569,12.674-8.341,18.801-8.341c4.425,0,7.712,1.659,9.862,4.96c1.878,2.622,2.816,5.973,2.816,10.018
	c0,1.442-0.105,2.766-0.336,4.016l16.494-41.173c0.559-1.324,0.819-2.362,0.819-3.103c0-1.884-1.578-2.834-4.723-2.834h-6.464
	c-0.883,0-1.305-0.441-1.305-1.304c0-0.828,0.422-1.244,1.305-1.244h23.604C829.634,519.586,830.081,521.195,828.813,524.415
	 M795.259,565.589c0-3.052-0.64-5.762-1.907-8.099c-1.604-3.112-3.965-4.686-7.109-4.686c-6.477,0-12.902,7.222-19.305,21.683
	c-5.593,12.431-8.377,22.232-8.377,29.41c0,5.611,2.387,8.42,7.135,8.42c7.825,0,14.953-6.307,21.347-18.912
	C792.52,582.667,795.259,573.401,795.259,565.589z"/>
<linearGradient id="SVGID_9_" gradientUnits="userSpaceOnUse" x1="827.0547" y1="582.7695" x2="884.5469" y2="582.7695">
	<stop  offset="0" style="stop-color:#EDE080"/>
	<stop  offset="0.3011" style="stop-color:#EDE080"/>
	<stop  offset="1" style="stop-color:#9B8430"/>
</linearGradient>
<path fill="url(#SVGID_9_)" d="M884.547,562.742c0,11.696-14.132,19.801-42.396,24.306c-2.163,5.06-3.244,9.883-3.244,14.433
	c0,3.095,0.944,5.667,2.827,7.736c1.871,2.075,4.605,3.101,8.191,3.101c9.18,0,18.005-6.443,26.513-19.333
	c0.876-1.512,2.23-3.729,4.059-6.626c0.323-0.603,0.845-0.9,1.578-0.9c0.869,0,1.33,0.392,1.33,1.174
	c0,0.286-0.068,0.554-0.187,0.833c-3.753,7.271-8.216,13.362-13.411,18.229c-6.787,6.401-13.96,9.595-21.522,9.595
	c-6.364,0-11.554-2.299-15.58-6.892c-3.772-4.245-5.649-9.098-5.649-14.581c0-9.34,4.418-18.748,13.269-28.227
	c9.272-10.242,19.384-15.339,30.31-15.339c4.082,0,7.428,1.193,10.024,3.623C883.269,556.292,884.547,559.243,884.547,562.742
	 M875.605,559.498c0-4.648-2.368-6.979-7.129-6.979c-8.166,0-16.631,10.614-25.426,31.838c8.136-0.547,15.407-3.15,21.857-7.8
	C872.044,571.686,875.605,565.993,875.605,559.498z"/>
<linearGradient id="SVGID_10_" gradientUnits="userSpaceOnUse" x1="30.1318" y1="583.6953" x2="230.4902" y2="583.6953">
	<stop  offset="0" style="stop-color:#EDE080"/>
	<stop  offset="0.3011" style="stop-color:#EDE080"/>
	<stop  offset="1" style="stop-color:#9B8430"/>
</linearGradient>
<polyline fill="url(#SVGID_10_)" points="130.316,579.306 30.132,583.681 130.316,588.086 230.49,583.705 130.316,579.306 "/>
<linearGradient id="SVGID_11_" gradientUnits="userSpaceOnUse" x1="962.5186" y1="583.6953" x2="1162.8867" y2="583.6953">
	<stop  offset="0" style="stop-color:#EDE080"/>
	<stop  offset="0.3011" style="stop-color:#EDE080"/>
	<stop  offset="1" style="stop-color:#9B8430"/>
</linearGradient>
<polyline fill="url(#SVGID_11_)" points="1062.703,579.306 962.519,583.681 1062.703,588.086 1162.887,583.705 1062.703,579.306 "/>
<linearGradient id="SVGID_12_" gradientUnits="userSpaceOnUse" x1="104.4971" y1="-348.396" x2="115.2011" y2="-366.6711" gradientTransform="matrix(4.4592 0 0 4.4592 -361.4684 2015.8567)">
	<stop  offset="0" style="stop-color:#EDE080"/>
	<stop  offset="0.3011" style="stop-color:#EDE080"/>
	<stop  offset="1" style="stop-color:#9B8430"/>
</linearGradient>
<rect x="107.134" y="384.897" fill="url(#SVGID_12_)" width="26.859" height="99.94"/>
<linearGradient id="SVGID_13_" gradientUnits="userSpaceOnUse" x1="115.7959" y1="-344.7373" x2="135.6368" y2="-359.096" gradientTransform="matrix(4.4592 0 0 4.4592 -361.4684 2015.8567)">
	<stop  offset="0" style="stop-color:#EDE080"/>
	<stop  offset="0.3011" style="stop-color:#EDE080"/>
	<stop  offset="1" style="stop-color:#9B8430"/>
</linearGradient>
<path fill="url(#SVGID_13_)" d="M192.085,432.993l9.993,23.111h-19.988L192.085,432.993z M192.085,383.022l-48.722,101.19h26.234
	l3.75-8.745h37.478l3.748,8.745h27.483l-48.097-101.189c0-0.624-0.624-0.624-0.624-0.624
	C192.708,382.398,192.085,383.022,192.085,383.022"/>
<linearGradient id="SVGID_14_" gradientUnits="userSpaceOnUse" x1="136.3662" y1="-344.0962" x2="164.0406" y2="-365.7658" gradientTransform="matrix(4.4592 0 0 4.4592 -361.4684 2015.8567)">
	<stop  offset="0" style="stop-color:#EDE080"/>
	<stop  offset="0.3011" style="stop-color:#EDE080"/>
	<stop  offset="1" style="stop-color:#9B8430"/>
</linearGradient>
<path fill="url(#SVGID_14_)" d="M350.74,383.648l-46.848,53.718l-48.096-53.718c-0.624-0.625-1.25-0.625-1.25,0l-5.623,101.189
	h26.236l2.498-42.475l26.234,29.357c0.625,0.624,0.625,0.624,1.25,0l24.985-28.733l2.499,42.474h26.234l-5.622-100.563
	c0-0.625,0-0.625-0.625-0.625C351.364,383.022,350.74,383.648,350.74,383.648"/>
<linearGradient id="SVGID_15_" gradientUnits="userSpaceOnUse" x1="165.6626" y1="-345.2295" x2="188.374" y2="-366.6356" gradientTransform="matrix(4.4592 0 0 4.4592 -361.4684 2015.8567)">
	<stop  offset="0" style="stop-color:#EDE080"/>
	<stop  offset="0.3011" style="stop-color:#EDE080"/>
	<stop  offset="1" style="stop-color:#9B8430"/>
</linearGradient>
<path fill="url(#SVGID_15_)" d="M401.957,454.855c-4.37-4.997-6.87-11.868-6.87-19.988c0-8.121,2.5-14.991,6.87-19.99
	c4.999-5.62,11.244-8.119,19.364-8.119s14.366,2.499,19.362,8.119c4.375,4.998,6.87,11.869,6.87,19.99
	c0,8.12-2.495,14.991-6.87,19.988c-4.996,5.622-11.242,8.12-19.362,8.12S406.331,459.853,401.957,454.855 M383.845,398.014
	c-10.618,9.994-16.24,21.861-16.24,36.854s4.996,26.859,16.24,36.854c10.618,9.369,23.11,14.366,37.476,14.366
	c14.366,0,26.861-4.995,37.479-14.366c10.618-9.994,16.24-21.861,16.24-36.854s-5.622-26.859-16.24-36.854
	c-10.618-9.368-23.113-14.366-37.479-14.366C406.331,383.648,393.839,388.646,383.845,398.014"/>
<linearGradient id="SVGID_16_" gradientUnits="userSpaceOnUse" x1="188.085" y1="-345.5332" x2="212.3644" y2="-363.5468" gradientTransform="matrix(4.4592 0 0 4.4592 -361.4684 2015.8567)">
	<stop  offset="0" style="stop-color:#EDE080"/>
	<stop  offset="0.3011" style="stop-color:#EDE080"/>
	<stop  offset="1" style="stop-color:#9B8430"/>
</linearGradient>
<path fill="url(#SVGID_16_)" d="M486.908,383.648v101.189h24.984v-49.971l62.463,51.219c1.25,1.25,1.874,1.25,1.874-0.625V384.897
	h-24.984v49.97l-62.463-51.845c-0.626-0.624-1.25-0.624-1.25-0.624S486.908,383.022,486.908,383.648"/>
<linearGradient id="SVGID_17_" gradientUnits="userSpaceOnUse" x1="213.8154" y1="-346.7217" x2="233.3949" y2="-367.0842" gradientTransform="matrix(4.4592 0 0 4.4592 -361.4684 2015.8567)">
	<stop  offset="0" style="stop-color:#EDE080"/>
	<stop  offset="0.3011" style="stop-color:#EDE080"/>
	<stop  offset="1" style="stop-color:#9B8430"/>
</linearGradient>
<path fill="url(#SVGID_17_)" d="M620.578,407.384h8.744c8.12,0,14.366,2.499,19.364,7.495c4.369,4.997,6.87,11.869,6.87,19.99
	c0,8.119-2.501,14.99-6.87,19.988c-4.998,4.996-11.244,7.496-19.364,7.496h-8.744V407.384z M594.341,384.897v99.94h38.729
	c14.366,0,26.857-4.373,36.229-13.117c9.367-9.37,14.366-21.237,14.366-36.229c0-14.99-4.999-27.481-14.366-36.854
	c-9.371-8.744-21.239-13.117-36.229-13.117h-38.729V384.897z"/>
<linearGradient id="SVGID_18_" gradientUnits="userSpaceOnUse" x1="243.3218" y1="-344.0537" x2="261.0754" y2="-364.1573" gradientTransform="matrix(4.4592 0 0 4.4592 -361.4684 2015.8567)">
	<stop  offset="0" style="stop-color:#EDE080"/>
	<stop  offset="0.3011" style="stop-color:#EDE080"/>
	<stop  offset="1" style="stop-color:#9B8430"/>
</linearGradient>
<polygon fill="url(#SVGID_18_)" points="730.512,384.897 730.512,484.838 799.221,484.838 799.221,462.351 756.746,462.351 
	756.746,384.897 "/>
<linearGradient id="SVGID_19_" gradientUnits="userSpaceOnUse" x1="265.0234" y1="-344.4722" x2="284.6035" y2="-366.402" gradientTransform="matrix(4.4592 0 0 4.4592 -361.4684 2015.8567)">
	<stop  offset="0" style="stop-color:#EDE080"/>
	<stop  offset="0.3011" style="stop-color:#EDE080"/>
	<stop  offset="1" style="stop-color:#9B8430"/>
</linearGradient>
<path fill="url(#SVGID_19_)" d="M841.071,454.855c-4.372-4.997-6.87-11.868-6.87-19.988c0-8.121,2.498-14.991,6.87-19.99
	c4.995-5.62,11.241-8.119,19.364-8.119c8.12,0,14.366,2.499,19.362,8.119c4.372,4.998,6.869,11.869,6.869,19.99
	c0,8.12-2.497,14.991-6.869,19.988c-4.996,5.622-11.242,8.12-19.362,8.12C852.313,462.976,845.443,459.853,841.071,454.855
	 M822.957,398.014c-10.621,9.994-16.243,21.861-16.243,36.854s5.622,26.859,16.243,36.854c10.618,9.369,23.109,14.366,37.479,14.366
	c14.366,0,26.858-4.995,37.477-14.366c10.617-9.994,16.24-21.861,16.24-36.854s-5.623-26.859-16.24-36.854
	c-10.618-9.368-23.11-14.366-37.477-14.366C845.443,383.648,832.951,388.646,822.957,398.014"/>
<linearGradient id="SVGID_20_" gradientUnits="userSpaceOnUse" x1="288.6494" y1="-348.7363" x2="307.1865" y2="-370.6677" gradientTransform="matrix(4.4592 0 0 4.4592 -361.4684 2015.8567)">
	<stop  offset="0" style="stop-color:#EDE080"/>
	<stop  offset="0.3011" style="stop-color:#EDE080"/>
	<stop  offset="1" style="stop-color:#9B8430"/>
</linearGradient>
<polygon fill="url(#SVGID_20_)" points="921.024,384.897 921.024,407.384 947.259,407.384 947.259,484.838 974.114,484.838 
	974.114,407.384 1000.352,407.384 1000.352,384.897 "/>
<linearGradient id="SVGID_21_" gradientUnits="userSpaceOnUse" x1="305.9829" y1="-347.4209" x2="329.4781" y2="-366.217" gradientTransform="matrix(4.4592 0 0 4.4592 -361.4684 2015.8567)">
	<stop  offset="0" style="stop-color:#EDE080"/>
	<stop  offset="0.3011" style="stop-color:#EDE080"/>
	<stop  offset="1" style="stop-color:#9B8430"/>
</linearGradient>
<path fill="url(#SVGID_21_)" d="M1070.935,384.897v60.589c0,11.868-5.622,17.488-16.867,17.488c-11.241,0-16.24-5.621-16.24-17.488
	v-60.589h-26.857v61.212c0,13.117,4.372,23.111,12.491,29.982c7.497,6.871,18.115,9.994,30.606,9.994
	c13.119,0,23.113-3.122,31.233-9.994c8.12-6.873,12.492-16.865,12.492-29.982v-61.212H1070.935z"/>
<linearGradient id="SVGID_22_" gradientUnits="userSpaceOnUse" x1="329.3101" y1="-343.8604" x2="350.1942" y2="-367.6161" gradientTransform="matrix(4.4592 0 0 4.4592 -361.4684 2015.8567)">
	<stop  offset="0" style="stop-color:#EDE080"/>
	<stop  offset="0.3011" style="stop-color:#EDE080"/>
	<stop  offset="1" style="stop-color:#9B8430"/>
</linearGradient>
<path fill="url(#SVGID_22_)" d="M1122.776,391.144c-6.869,5.622-10.617,13.116-10.617,22.486c0,7.496,2.497,14.366,6.869,19.363
	c4.372,4.373,9.994,8.12,18.117,10.619l11.865,3.748c6.246,2.498,9.994,4.996,9.994,8.744c0,4.996-4.371,8.12-12.491,8.12
	c-4.372,0-8.744-1.25-12.492-3.123c-3.125-1.874-5.622-4.372-8.744-7.495l-19.364,14.366c1.874,2.498,3.748,4.372,5.622,6.246
	c2.5,2.499,5.622,4.372,8.746,6.246c3.746,1.874,7.494,3.121,11.866,4.373c4.995,1.249,9.994,1.874,14.992,1.874
	c12.492,0,22.486-3.124,28.732-8.745c6.246-5.622,8.744-13.117,8.744-22.486c0-7.497-1.874-13.117-5.62-18.114
	c-4.374-4.997-11.244-9.37-20.614-12.494l-13.116-4.371c-4.998-1.25-6.87-3.749-6.87-7.496c0-4.373,3.122-6.871,9.992-6.871
	c3.748,0,6.872,0.624,9.37,1.874s4.372,3.123,6.87,4.997l14.989-16.24c-3.121-3.748-7.493-6.871-11.865-9.37
	c-5.622-2.497-13.118-3.747-21.238-3.747C1137.146,383.648,1129.022,386.146,1122.776,391.144"/>
<linearGradient id="SVGID_23_" gradientUnits="userSpaceOnUse" x1="173.562" y1="-383.1499" x2="194.1808" y2="-383.1499" gradientTransform="matrix(4.4592 0 0 4.4592 -361.4684 2015.8567)">
	<stop  offset="0" style="stop-color:#EDE080"/>
	<stop  offset="0.3011" style="stop-color:#EDE080"/>
	<stop  offset="1" style="stop-color:#9B8430"/>
</linearGradient>
<path fill="url(#SVGID_23_)" d="M504.396,305.568c-0.624,0-1.25,0-1.874-0.623c-9.994-3.123-19.988-2.499-23.734-2.499
	c-3.751,0.625-13.119,1.874-22.489,3.748c-9.368,1.874-15.614,0.624-28.106-2.499c-8.12-1.873-13.119-1.249-16.24-0.622v8.12
	c2.498-0.625,8.744-1.251,18.114-1.251c13.74-0.623,28.106,0.624,37.477,1.873c8.747,1.252,19.988-0.622,32.48-1.873
	c1.25,0,2.501,0,3.751,0v-4.373"/>
<linearGradient id="SVGID_24_" gradientUnits="userSpaceOnUse" x1="173.562" y1="-387.0122" x2="194.1806" y2="-387.0122" gradientTransform="matrix(4.4592 0 0 4.4592 -361.4684 2015.8567)">
	<stop  offset="0" style="stop-color:#EDE080"/>
	<stop  offset="0.3011" style="stop-color:#EDE080"/>
	<stop  offset="1" style="stop-color:#9B8430"/>
</linearGradient>
<path fill="url(#SVGID_24_)" d="M504.396,289.954L504.396,289.954c-4.372,0-14.99-3.123-19.988-3.123s-18.738-1.249-22.486,0
	c-3.748,1.251-13.742,3.123-17.49,3.123c-3.746,0-14.366-3.123-20.612-5.622c-4.372-1.25-8.744,0-11.242,1.25v8.744
	c4.372,0.624,12.492,1.874,16.24,1.249c4.996-0.622,11.242-2.498,23.11-1.249s36.229,3.122,46.223,1.249
	c2.498-0.622,4.372-0.622,6.246-1.249V289.954"/>
<linearGradient id="SVGID_25_" gradientUnits="userSpaceOnUse" x1="173.5615" y1="-391.1162" x2="194.1806" y2="-391.1162" gradientTransform="matrix(4.4592 0 0 4.4592 -361.4684 2015.8567)">
	<stop  offset="0" style="stop-color:#EDE080"/>
	<stop  offset="0.3011" style="stop-color:#EDE080"/>
	<stop  offset="1" style="stop-color:#9B8430"/>
</linearGradient>
<path fill="url(#SVGID_25_)" d="M504.396,269.965c-4.996-0.624-8.12-1.249-9.994-1.249c-4.996-0.625-15.614-4.373-27.485-0.625
	c-11.865,3.748-19.362,3.748-28.732,1.25c-12.492-3.748-21.86-1.873-26.234-0.624v6.871c6.87,1.873,18.114,1.873,24.987,0.623
	c7.494-1.874,18.738-3.122,23.733-1.249c4.996,1.872,19.989,3.121,31.23,1.249c3.751-0.623,7.496-1.249,11.871-1.874v-4.372"/>
<linearGradient id="SVGID_26_" gradientUnits="userSpaceOnUse" x1="173.562" y1="-395.0562" x2="194.1808" y2="-395.0562" gradientTransform="matrix(4.4592 0 0 4.4592 -361.4684 2015.8567)">
	<stop  offset="0" style="stop-color:#EDE080"/>
	<stop  offset="0.3011" style="stop-color:#EDE080"/>
	<stop  offset="1" style="stop-color:#9B8430"/>
</linearGradient>
<path fill="url(#SVGID_26_)" d="M504.396,252.477c-0.624,0-1.25,0-1.874-0.625c-9.994-3.121-19.988-2.498-23.734-2.498
	c-3.751,0.624-13.119,1.874-22.489,3.747c-9.368,1.876-15.614,0.625-28.106-2.496c-8.12-1.876-13.119-1.251-16.24-0.626v8.121
	c2.498-0.624,8.744-1.249,18.114-1.249c13.74-0.626,28.106,0.623,37.477,1.874c8.747,1.248,19.988-0.625,32.48-1.874
	c1.25,0,2.501,0,3.751,0v-4.372"/>
<linearGradient id="SVGID_27_" gradientUnits="userSpaceOnUse" x1="173.562" y1="-399.0586" x2="194.1806" y2="-399.0586" gradientTransform="matrix(4.4592 0 0 4.4592 -361.4684 2015.8567)">
	<stop  offset="0" style="stop-color:#EDE080"/>
	<stop  offset="0.3011" style="stop-color:#EDE080"/>
	<stop  offset="1" style="stop-color:#9B8430"/>
</linearGradient>
<path fill="url(#SVGID_27_)" d="M504.396,236.235L504.396,236.235c-4.372,0-14.99-3.122-19.988-3.122s-18.738-1.25-22.486,0
	c-3.748,1.249-13.742,3.122-17.49,3.122c-3.746,0-14.366-3.122-20.612-5.622c-4.372-1.249-8.744,0-11.242,1.25v8.744
	c4.372,0.625,12.492,1.874,16.24,1.25c4.996-0.624,11.242-2.498,23.11-1.25c11.868,1.25,36.229,3.123,46.223,1.25
	c2.498-0.624,4.372-0.624,6.246-1.25V236.235"/>
<linearGradient id="SVGID_28_" gradientUnits="userSpaceOnUse" x1="173.5615" y1="-403.1621" x2="194.1806" y2="-403.1621" gradientTransform="matrix(4.4592 0 0 4.4592 -361.4684 2015.8567)">
	<stop  offset="0" style="stop-color:#EDE080"/>
	<stop  offset="0.3011" style="stop-color:#EDE080"/>
	<stop  offset="1" style="stop-color:#9B8430"/>
</linearGradient>
<path fill="url(#SVGID_28_)" d="M504.396,216.248c-4.996-0.625-8.12-1.249-9.994-1.249c-4.996-0.625-15.614-4.374-27.485-0.625
	c-11.865,3.749-19.362,3.749-28.732,1.249c-12.492-3.747-21.86-1.874-26.234-0.622v6.868c6.87,1.874,18.114,1.874,24.987,0.625
	c7.494-1.874,18.738-3.123,23.733-1.249c4.996,1.873,19.989,3.122,31.23,1.249c3.751-0.625,7.496-1.249,11.871-1.874v-4.372"/>
<linearGradient id="SVGID_29_" gradientUnits="userSpaceOnUse" x1="173.562" y1="-406.9961" x2="194.1808" y2="-406.9961" gradientTransform="matrix(4.4592 0 0 4.4592 -361.4684 2015.8567)">
	<stop  offset="0" style="stop-color:#EDE080"/>
	<stop  offset="0.3011" style="stop-color:#EDE080"/>
	<stop  offset="1" style="stop-color:#9B8430"/>
</linearGradient>
<path fill="url(#SVGID_29_)" d="M504.396,198.758c-0.624,0-1.25,0-1.874-0.624c-9.994-2.499-19.988-2.499-23.734-1.875
	c-3.748,0.625-13.119,1.875-22.489,3.75c-9.368,1.874-15.614,0.622-28.106-2.5c-8.12-1.874-13.119-1.25-16.24-0.624v8.12
	c2.498-0.624,8.744-1.25,18.114-1.25c13.74-0.624,28.106,1.25,37.477,1.874c8.747,1.25,19.988-0.624,32.48-1.874
	c1.25,0,2.501,0,3.751,0v-4.996"/>
<linearGradient id="SVGID_30_" gradientUnits="userSpaceOnUse" x1="173.562" y1="-410.9961" x2="194.1806" y2="-410.9961" gradientTransform="matrix(4.4592 0 0 4.4592 -361.4684 2015.8567)">
	<stop  offset="0" style="stop-color:#EDE080"/>
	<stop  offset="0.3011" style="stop-color:#EDE080"/>
	<stop  offset="1" style="stop-color:#9B8430"/>
</linearGradient>
<path fill="url(#SVGID_30_)" d="M504.396,183.143L504.396,183.143c-4.372,0-14.99-3.123-19.988-3.123s-18.738-1.249-22.486,0
	c-3.748,1.25-13.742,3.123-17.49,3.123c-3.746,0-14.366-3.123-20.612-5.622c-4.372-1.874-8.744,0-11.242,1.25v8.744
	c4.372,0.624,12.492,1.874,16.24,1.25c4.996-0.625,11.242-2.5,23.11-1.25c11.868,1.25,36.229,3.123,46.223,1.25
	c2.498-0.625,4.372-0.625,6.246-1.25V183.143"/>
<linearGradient id="SVGID_31_" gradientUnits="userSpaceOnUse" x1="173.5615" y1="-415.2148" x2="194.1806" y2="-415.2148" gradientTransform="matrix(4.4592 0 0 4.4592 -361.4684 2015.8567)">
	<stop  offset="0" style="stop-color:#EDE080"/>
	<stop  offset="0.3011" style="stop-color:#EDE080"/>
	<stop  offset="1" style="stop-color:#9B8430"/>
</linearGradient>
<path fill="url(#SVGID_31_)" d="M504.396,162.531c-4.996-0.625-8.12-1.252-9.994-1.252c-4.996-0.623-15.614-4.372-27.485-0.623
	c-11.865,3.749-19.362,3.749-28.732,1.249c-12.492-3.748-21.86-1.874-26.234-0.625v6.871c6.87,1.874,18.114,1.874,24.987,0.625
	c7.494-1.874,18.738-3.123,23.733-1.25c4.996,1.873,19.989,3.123,31.23,0.624c3.751-0.624,7.496-1.25,11.871-1.874v-3.747"/>
<linearGradient id="SVGID_32_" gradientUnits="userSpaceOnUse" x1="173.562" y1="-419.1494" x2="194.1808" y2="-419.1494" gradientTransform="matrix(4.4592 0 0 4.4592 -361.4684 2015.8567)">
	<stop  offset="0" style="stop-color:#EDE080"/>
	<stop  offset="0.3011" style="stop-color:#EDE080"/>
	<stop  offset="1" style="stop-color:#9B8430"/>
</linearGradient>
<path fill="url(#SVGID_32_)" d="M504.396,145.04c-0.624,0-1.25,0-1.874-0.624c-9.994-3.122-19.988-2.5-23.734-2.5
	c-3.751,0.625-13.119,1.875-22.489,3.75c-9.368,1.874-15.614,0.624-28.106-2.498c-8.12-1.874-13.119-1.252-16.24-0.625v8.12
	c2.498-0.624,8.744-1.249,18.114-1.249c13.74-0.625,28.106,0.624,37.477,1.874c8.747,1.249,19.988-0.625,32.48-1.874
	c1.25,0,2.501,0,3.751,0v-4.374"/>
<linearGradient id="SVGID_33_" gradientUnits="userSpaceOnUse" x1="173.562" y1="-423.082" x2="194.1806" y2="-423.082" gradientTransform="matrix(4.4592 0 0 4.4592 -361.4684 2015.8567)">
	<stop  offset="0" style="stop-color:#EDE080"/>
	<stop  offset="0.3011" style="stop-color:#EDE080"/>
	<stop  offset="1" style="stop-color:#9B8430"/>
</linearGradient>
<path fill="url(#SVGID_33_)" d="M504.396,129.424L504.396,129.424c-4.372,0-14.99-3.122-19.988-3.122s-18.738-1.25-22.486,0
	c-3.748,1.249-13.742,3.122-17.49,3.122c-3.746,0-14.366-3.122-20.612-5.623c-4.372-1.249-8.744,0-11.242,1.25v8.122
	c4.372,0.622,12.492,1.873,16.24,1.249c4.996-0.625,11.242-2.499,23.11-1.249c11.868,1.249,36.229,3.122,46.223,1.249
	c2.498-0.625,4.372-0.625,6.246-1.249V129.424"/>
<linearGradient id="SVGID_34_" gradientUnits="userSpaceOnUse" x1="173.5615" y1="-427.1846" x2="194.1806" y2="-427.1846" gradientTransform="matrix(4.4592 0 0 4.4592 -361.4684 2015.8567)">
	<stop  offset="0" style="stop-color:#EDE080"/>
	<stop  offset="0.3011" style="stop-color:#EDE080"/>
	<stop  offset="1" style="stop-color:#9B8430"/>
</linearGradient>
<path fill="url(#SVGID_34_)" d="M504.396,109.437c-4.996-0.624-8.12-1.249-9.994-1.249c-4.996-0.625-15.614-4.372-27.485-0.625
	c-11.865,3.748-19.362,3.748-28.732,1.25c-12.492-3.748-21.86-1.874-26.234-0.625v6.248c6.87,1.874,18.114,1.874,24.987,0.624
	c7.494-1.875,18.738-2.5,23.733-1.249c4.996,1.873,19.989,3.122,31.23,1.249c3.751-0.624,7.496-1.249,11.871-1.875v-3.748"/>
<linearGradient id="SVGID_35_" gradientUnits="userSpaceOnUse" x1="173.562" y1="-431.1958" x2="194.1808" y2="-431.1958" gradientTransform="matrix(4.4592 0 0 4.4592 -361.4684 2015.8567)">
	<stop  offset="0" style="stop-color:#EDE080"/>
	<stop  offset="0.3011" style="stop-color:#EDE080"/>
	<stop  offset="1" style="stop-color:#9B8430"/>
</linearGradient>
<path fill="url(#SVGID_35_)" d="M504.396,91.322c-0.624,0-1.25,0-1.874-0.624c-9.994-3.123-19.988-2.5-23.734-2.5
	c-3.751,0.625-13.119,1.874-22.489,3.749c-9.368,1.874-15.614,0.624-28.106-2.498c-8.12-1.874-13.119-1.25-16.24-0.624v8.12
	c2.498-0.625,8.744-1.25,18.114-1.25c13.74-0.624,28.106,1.25,37.477,1.874c8.747,1.25,19.988-0.624,32.48-1.874
	c1.25,0,2.501,0,3.751,0v-4.372"/>
<linearGradient id="SVGID_36_" gradientUnits="userSpaceOnUse" x1="173.562" y1="-435.0889" x2="194.1806" y2="-435.0889" gradientTransform="matrix(4.4592 0 0 4.4592 -361.4684 2015.8567)">
	<stop  offset="0" style="stop-color:#EDE080"/>
	<stop  offset="0.3011" style="stop-color:#EDE080"/>
	<stop  offset="1" style="stop-color:#9B8430"/>
</linearGradient>
<path fill="url(#SVGID_36_)" d="M504.396,75.708L504.396,75.708c-4.372,0-14.99-3.122-19.988-3.122s-18.738-1.25-22.486,0
	c-3.748,1.249-13.742,3.122-17.49,3.122c-3.746,0-14.366-3.122-20.612-5.623c-4.372-1.874-8.744,0-11.242,1.25v8.744
	c4.372,0.625,12.492,1.874,16.24,1.249c4.996-0.622,11.242-2.497,23.11-1.249c11.868,1.249,36.229,3.122,46.223,1.249
	c2.498-0.622,4.372-0.622,6.246-1.249V75.708"/>
<linearGradient id="SVGID_37_" gradientUnits="userSpaceOnUse" x1="203.9214" y1="-379.3027" x2="224.792" y2="-379.3027" gradientTransform="matrix(4.4592 0 0 4.4592 -361.4684 2015.8567)">
	<stop  offset="0" style="stop-color:#EDE080"/>
	<stop  offset="0.3011" style="stop-color:#EDE080"/>
	<stop  offset="1" style="stop-color:#9B8430"/>
</linearGradient>
<path fill="url(#SVGID_37_)" d="M640.563,322.434c-3.121-0.624-5.622-1.249-8.744-1.249c-16.239-2.499-14.365,1.249-27.481,3.122
	c-13.119,1.872-16.864,0-27.485-2.498c-9.368-1.874-16.24-3.123-29.356-0.624v7.495c13.116,0.625,32.48,0.625,42.475,0
	c13.742-1.249,26.234-2.497,38.724-1.249c3.748,0.625,7.499,1.249,11.868,1.249V322.434"/>
<linearGradient id="SVGID_38_" gradientUnits="userSpaceOnUse" x1="203.9209" y1="-383.251" x2="224.778" y2="-383.251" gradientTransform="matrix(4.4592 0 0 4.4592 -361.4684 2015.8567)">
	<stop  offset="0" style="stop-color:#EDE080"/>
	<stop  offset="0.3011" style="stop-color:#EDE080"/>
	<stop  offset="1" style="stop-color:#9B8430"/>
</linearGradient>
<path fill="url(#SVGID_38_)" d="M640.563,304.32c-1.247,0-1.874-0.625-3.121-0.625c-16.24-3.122-27.482-0.622-33.729,0.625
	c-6.872,1.874-15.616,2.499-27.484,0c-11.242-2.498-21.239-3.748-22.486-3.123c-0.624,0-3.125,0.625-5.622,1.25v9.368
	c11.242,1.252,21.236,1.252,30.606-0.622c9.995-1.874,28.732-1.874,35.605,0c5.622,1.249,17.487,1.874,26.234,0.622v-7.495"/>
<linearGradient id="SVGID_39_" gradientUnits="userSpaceOnUse" x1="203.9214" y1="-386.7402" x2="224.7778" y2="-386.7402" gradientTransform="matrix(4.4592 0 0 4.4592 -361.4684 2015.8567)">
	<stop  offset="0" style="stop-color:#EDE080"/>
	<stop  offset="0.3011" style="stop-color:#EDE080"/>
	<stop  offset="1" style="stop-color:#9B8430"/>
</linearGradient>
<path fill="url(#SVGID_39_)" d="M640.563,286.83c-6.87-1.874-14.989-1.249-19.361,0.624c-5.622,2.499-26.858,3.121-29.356,3.121
	c-1.874,0-14.993-1.249-24.987-3.121c-6.246-1.249-13.116-0.624-19.362,0v7.496c6.246,0.624,11.868,1.25,14.366,0.624
	c4.372-0.624,13.116-2.498,23.736-1.873c10.618,0,18.114,2.498,25.608,3.123c6.869,0.622,19.988-2.499,24.36-3.75
	c1.25-0.623,3.121-0.623,5.622-0.623v-5.623"/>
<linearGradient id="SVGID_40_" gradientUnits="userSpaceOnUse" x1="203.9209" y1="-391.3496" x2="224.7925" y2="-391.3496" gradientTransform="matrix(4.4592 0 0 4.4592 -361.4684 2015.8567)">
	<stop  offset="0" style="stop-color:#EDE080"/>
	<stop  offset="0.3011" style="stop-color:#EDE080"/>
	<stop  offset="1" style="stop-color:#9B8430"/>
</linearGradient>
<path fill="url(#SVGID_40_)" d="M640.563,268.717c-3.121-0.625-5.622-1.249-8.744-1.249c-16.239-2.499-14.365,1.249-26.857,3.122
	c-13.116,1.873-16.867,0-27.482-2.499c-9.37-1.874-16.243-3.122-29.358-0.623v7.495c13.116,0.625,32.48,0.625,42.475,0
	c13.742-1.249,26.234-2.499,38.727-1.249c3.748,0.623,7.493,1.249,11.868,1.249v-6.246"/>
<linearGradient id="SVGID_41_" gradientUnits="userSpaceOnUse" x1="203.9209" y1="-395.2974" x2="224.778" y2="-395.2974" gradientTransform="matrix(4.4592 0 0 4.4592 -361.4684 2015.8567)">
	<stop  offset="0" style="stop-color:#EDE080"/>
	<stop  offset="0.3011" style="stop-color:#EDE080"/>
	<stop  offset="1" style="stop-color:#9B8430"/>
</linearGradient>
<path fill="url(#SVGID_41_)" d="M640.563,250.603c-1.247,0-1.874-0.625-3.121-0.625c-16.24-2.498-27.482-0.624-33.729,0.625
	c-6.872,1.874-15.616,2.497-27.484,0c-11.242-2.499-21.239-3.749-22.486-3.123c-0.624,0-3.125,0.624-5.622,1.251v9.367
	c11.242,1.25,21.236,1.25,30.606-0.624c9.995-1.874,28.732-1.874,35.605,0c5.622,1.251,17.487,1.874,26.234,0.624v-7.495"/>
<linearGradient id="SVGID_42_" gradientUnits="userSpaceOnUse" x1="203.9214" y1="-398.8623" x2="224.7778" y2="-398.8623" gradientTransform="matrix(4.4592 0 0 4.4592 -361.4684 2015.8567)">
	<stop  offset="0" style="stop-color:#EDE080"/>
	<stop  offset="0.3011" style="stop-color:#EDE080"/>
	<stop  offset="1" style="stop-color:#9B8430"/>
</linearGradient>
<path fill="url(#SVGID_42_)" d="M640.563,233.113c-6.87-1.873-14.989-1.25-19.361,0c-5.622,2.498-26.858,3.122-29.356,3.122
	c-1.874,0-14.993-1.25-24.987-3.122c-6.246-1.25-13.116-0.625-19.362,0v7.495c6.246,0.625,11.868,1.251,14.366,0.625
	c4.372-0.625,13.116-2.499,23.736-1.874c10.618,0,18.114,2.498,25.608,3.122c6.869,0.624,19.988-2.498,24.36-3.748
	c1.25-0.624,3.121-0.624,5.622-0.624v-4.996"/>
<linearGradient id="SVGID_43_" gradientUnits="userSpaceOnUse" x1="203.9214" y1="-403.3965" x2="224.792" y2="-403.3965" gradientTransform="matrix(4.4592 0 0 4.4592 -361.4684 2015.8567)">
	<stop  offset="0" style="stop-color:#EDE080"/>
	<stop  offset="0.3011" style="stop-color:#EDE080"/>
	<stop  offset="1" style="stop-color:#9B8430"/>
</linearGradient>
<path fill="url(#SVGID_43_)" d="M640.563,215c-3.121-0.625-5.622-1.252-8.744-1.252c-16.239-2.498-14.365,1.252-27.481,3.125
	c-13.119,1.873-16.864,0-27.485-2.499c-9.368-1.874-16.24-3.123-29.356-0.625v7.498c13.116,0.623,32.48,0.623,42.475,0
	c13.742-1.25,26.234-2.499,38.724-1.25c3.748,0.624,7.499,1.25,11.868,1.25V215"/>
<linearGradient id="SVGID_44_" gradientUnits="userSpaceOnUse" x1="203.9209" y1="-407.2041" x2="224.778" y2="-407.2041" gradientTransform="matrix(4.4592 0 0 4.4592 -361.4684 2015.8567)">
	<stop  offset="0" style="stop-color:#EDE080"/>
	<stop  offset="0.3011" style="stop-color:#EDE080"/>
	<stop  offset="1" style="stop-color:#9B8430"/>
</linearGradient>
<path fill="url(#SVGID_44_)" d="M640.563,197.509c-1.247,0-1.874-0.624-3.121-0.624c-16.24-3.122-27.482-0.624-33.729,0.624
	c-6.872,1.874-15.616,2.5-27.484,0c-11.242-2.498-21.239-3.747-22.486-3.123c-0.624,0-3.125,0.625-5.622,1.25v9.369
	c11.242,1.25,21.236,1.25,30.606-0.624c9.995-1.874,28.732-1.874,35.605,0c5.622,1.249,17.487,1.874,26.234,0.624v-7.497"/>
<linearGradient id="SVGID_45_" gradientUnits="userSpaceOnUse" x1="203.9209" y1="-410.8335" x2="224.7766" y2="-410.8335" gradientTransform="matrix(4.4592 0 0 4.4592 -361.4684 2015.8567)">
	<stop  offset="0" style="stop-color:#EDE080"/>
	<stop  offset="0.3011" style="stop-color:#EDE080"/>
	<stop  offset="1" style="stop-color:#9B8430"/>
</linearGradient>
<path fill="url(#SVGID_45_)" d="M640.563,179.395c-6.87-1.874-14.989-1.25-19.361,0.624c-4.996,1.874-26.858,3.123-28.735,3.123
	c-1.871,0-14.987-1.25-24.984-3.123c-6.246-1.249-13.116-0.624-19.362,0v7.496c6.246,0.624,11.868,1.25,14.366,0.624
	c4.372-0.624,13.116-2.497,23.733-1.874c10.621,0,18.117,2.499,25.61,3.123c6.87,0.624,19.991-2.498,24.363-3.747
	c1.248-0.625,3.122-0.625,5.62-0.625v-5.623"/>
<linearGradient id="SVGID_46_" gradientUnits="userSpaceOnUse" x1="203.9214" y1="-415.4424" x2="224.792" y2="-415.4424" gradientTransform="matrix(4.4592 0 0 4.4592 -361.4684 2015.8567)">
	<stop  offset="0" style="stop-color:#EDE080"/>
	<stop  offset="0.3011" style="stop-color:#EDE080"/>
	<stop  offset="1" style="stop-color:#9B8430"/>
</linearGradient>
<path fill="url(#SVGID_46_)" d="M640.563,161.28c-3.121-0.623-5.622-1.249-8.744-1.249c-16.239-2.498-14.365,1.249-27.481,3.122
	c-13.119,1.873-16.864,0-27.485-2.497c-9.368-1.875-16.24-3.123-29.356-0.625v7.497c13.116,0.624,32.48,0.624,42.475,0
	c13.742-1.25,26.234-2.5,38.724-1.25c3.748,0.625,7.499,1.25,11.868,1.25V161.28"/>
<linearGradient id="SVGID_47_" gradientUnits="userSpaceOnUse" x1="203.9209" y1="-419.2505" x2="224.778" y2="-419.2505" gradientTransform="matrix(4.4592 0 0 4.4592 -361.4684 2015.8567)">
	<stop  offset="0" style="stop-color:#EDE080"/>
	<stop  offset="0.3011" style="stop-color:#EDE080"/>
	<stop  offset="1" style="stop-color:#9B8430"/>
</linearGradient>
<path fill="url(#SVGID_47_)" d="M640.563,143.79c-1.247,0-1.874-0.623-3.121-0.623c-16.24-3.123-27.482-0.625-33.729,0.623
	c-6.872,1.875-15.616,2.499-27.484,0c-11.242-2.497-21.239-3.747-22.486-3.122c-0.624,0-3.125,0.625-5.622,1.249v9.371
	c11.242,1.249,21.236,1.249,30.606-0.625c9.995-1.874,28.732-1.874,35.605,0c5.622,1.25,17.487,1.875,26.234,0.625v-7.498"/>
<linearGradient id="SVGID_48_" gradientUnits="userSpaceOnUse" x1="203.9214" y1="-422.9556" x2="224.7778" y2="-422.9556" gradientTransform="matrix(4.4592 0 0 4.4592 -361.4684 2015.8567)">
	<stop  offset="0" style="stop-color:#EDE080"/>
	<stop  offset="0.3011" style="stop-color:#EDE080"/>
	<stop  offset="1" style="stop-color:#9B8430"/>
</linearGradient>
<path fill="url(#SVGID_48_)" d="M640.563,125.677c-6.87-1.874-14.989-1.249-19.361,0c-5.622,2.5-26.858,3.123-29.356,3.123
	c-1.874,0-14.993-1.25-24.987-3.123c-6.246-1.249-13.116-0.622-19.362,0v7.498c6.246,0.622,11.868,1.249,14.366,0.622
	c4.372-0.622,13.116-2.497,23.736-1.874c10.618,0,18.114,2.499,25.608,3.125c6.869,0.623,19.988-2.5,24.36-3.75
	c1.25-0.624,3.121-0.624,5.622-0.624v-4.997"/>
<linearGradient id="SVGID_49_" gradientUnits="userSpaceOnUse" x1="203.9209" y1="-427.3491" x2="224.7925" y2="-427.3491" gradientTransform="matrix(4.4592 0 0 4.4592 -361.4684 2015.8567)">
	<stop  offset="0" style="stop-color:#EDE080"/>
	<stop  offset="0.3011" style="stop-color:#EDE080"/>
	<stop  offset="1" style="stop-color:#9B8430"/>
</linearGradient>
<path fill="url(#SVGID_49_)" d="M640.563,108.188c-3.121-0.625-5.622-1.25-8.744-1.25c-16.239-2.499-14.365,1.25-26.857,3.123
	c-13.116,1.874-16.867,0-27.482-2.5c-9.37-1.873-16.243-3.123-29.358-0.624v7.496c13.116,0.624,32.48,0.624,42.475,0
	c13.742-1.25,26.234-2.498,38.727-1.25c3.748,0.625,7.493,1.25,11.868,1.25v-6.246"/>
<linearGradient id="SVGID_50_" gradientUnits="userSpaceOnUse" x1="203.9209" y1="-431.2969" x2="224.778" y2="-431.2969" gradientTransform="matrix(4.4592 0 0 4.4592 -361.4684 2015.8567)">
	<stop  offset="0" style="stop-color:#EDE080"/>
	<stop  offset="0.3011" style="stop-color:#EDE080"/>
	<stop  offset="1" style="stop-color:#9B8430"/>
</linearGradient>
<path fill="url(#SVGID_50_)" d="M640.563,90.073c-1.247,0-1.874-0.624-3.121-0.624c-16.24-2.498-27.482-0.624-33.729,0.624
	c-6.872,1.875-15.616,2.498-27.484,0c-11.242-2.498-21.239-3.748-22.486-3.122c-0.624,0-3.125,0.624-5.622,1.249v9.369
	c11.242,1.25,21.236,1.25,30.606-0.624c9.995-1.874,28.732-1.874,35.605,0c5.622,1.249,17.487,1.875,26.234,0.624v-7.497"/>
<linearGradient id="SVGID_51_" gradientUnits="userSpaceOnUse" x1="203.9214" y1="-434.7861" x2="224.7778" y2="-434.7861" gradientTransform="matrix(4.4592 0 0 4.4592 -361.4684 2015.8567)">
	<stop  offset="0" style="stop-color:#EDE080"/>
	<stop  offset="0.3011" style="stop-color:#EDE080"/>
	<stop  offset="1" style="stop-color:#9B8430"/>
</linearGradient>
<path fill="url(#SVGID_51_)" d="M640.563,72.583c-6.87-1.874-14.989-1.249-19.361,0.624c-5.622,2.5-26.858,3.123-29.356,3.123
	c-1.874,0-14.993-1.25-24.987-3.123c-6.246-1.249-13.116-0.624-19.362,0v7.498c6.246,0.622,11.868,1.249,14.366,0.622
	c4.372-0.622,13.116-2.496,23.736-1.873c10.618,0,18.114,2.498,25.608,3.123c6.869,0.623,19.988-2.499,24.36-3.748
	c1.25-0.625,3.121-0.625,5.622-0.625v-5.621"/>
<linearGradient id="SVGID_52_" gradientUnits="userSpaceOnUse" x1="203.9209" y1="-439.3955" x2="224.7925" y2="-439.3955" gradientTransform="matrix(4.4592 0 0 4.4592 -361.4684 2015.8567)">
	<stop  offset="0" style="stop-color:#EDE080"/>
	<stop  offset="0.3011" style="stop-color:#EDE080"/>
	<stop  offset="1" style="stop-color:#9B8430"/>
</linearGradient>
<path fill="url(#SVGID_52_)" d="M640.563,54.47c-3.121-0.625-5.622-1.249-8.744-1.249c-16.239-2.5-14.365,1.249-26.857,3.122
	c-13.116,1.873-16.867,0-27.482-2.498c-9.37-1.875-16.243-3.123-29.358-0.624v7.495c13.116,0.625,32.48,0.625,42.475,0
	c13.742-1.249,26.234-2.499,38.727-1.249c3.748,0.624,7.493,1.249,11.868,1.249V54.47"/>
<linearGradient id="SVGID_53_" gradientUnits="userSpaceOnUse" x1="234.5156" y1="-379.2295" x2="255.1172" y2="-379.2295" gradientTransform="matrix(4.4592 0 0 4.4592 -361.4684 2015.8567)">
	<stop  offset="0" style="stop-color:#EDE080"/>
	<stop  offset="0.3011" style="stop-color:#EDE080"/>
	<stop  offset="1" style="stop-color:#9B8430"/>
</linearGradient>
<path fill="url(#SVGID_53_)" d="M764.239,319.937c-6.246,0-18.111,4.995-20.612,5.621c-2.498,0.625-14.366,0-23.733-3.123
	c-9.37-3.121-19.365-1.874-21.862-1.874c-1.874,0-7.494,1.874-14.366,3.123v6.246c1.874,0,4.372-0.624,6.246-0.624
	c22.486-3.748,33.106-0.625,48.097-1.249c21.859,2.497,37.479,0,37.479,0v-8.121C776.11,319.937,769.864,319.312,764.239,319.937"/>
<linearGradient id="SVGID_54_" gradientUnits="userSpaceOnUse" x1="234.5166" y1="-383.1289" x2="255.1366" y2="-383.1289" gradientTransform="matrix(4.4592 0 0 4.4592 -361.4684 2015.8567)">
	<stop  offset="0" style="stop-color:#EDE080"/>
	<stop  offset="0.3011" style="stop-color:#EDE080"/>
	<stop  offset="1" style="stop-color:#9B8430"/>
</linearGradient>
<path fill="url(#SVGID_54_)" d="M749.873,304.945c-8.12,3.122-18.738,2.497-26.858,0c-8.12-2.499-15.613-1.874-19.364-1.874
	c-3.745,0-11.242,3.122-18.738,4.371v3.123l0,0c10.618,1.249,16.867,3.748,29.359,0c11.868-3.123,29.355,0,39.35,1.249
	c9.997,1.251,23.113-2.497,23.113-2.497s0-1.25,0-4.997C766.116,301.196,757.993,301.822,749.873,304.945"/>
<linearGradient id="SVGID_55_" gradientUnits="userSpaceOnUse" x1="234.5176" y1="-387.0518" x2="255.1376" y2="-387.0518" gradientTransform="matrix(4.4592 0 0 4.4592 -361.4684 2015.8567)">
	<stop  offset="0" style="stop-color:#EDE080"/>
	<stop  offset="0.3011" style="stop-color:#EDE080"/>
	<stop  offset="1" style="stop-color:#9B8430"/>
</linearGradient>
<path fill="url(#SVGID_55_)" d="M754.871,289.329c-6.869,1.874-20.611,0-23.733-1.249c-3.748-1.25-14.366-4.372-19.361-4.372
	c-4.999-0.625-17.491,2.498-25.611,4.996c-0.623,0-1.25,0-1.874,0.624v6.871c8.744,0,20.612-1.25,27.485-2.498
	c8.741-1.874,34.352,0,42.472,1.249c7.496,1.25,22.488-1.874,22.488-1.874v-8.744C776.11,284.957,761.744,287.455,754.871,289.329"
	/>
<linearGradient id="SVGID_56_" gradientUnits="userSpaceOnUse" x1="234.5156" y1="-391.2764" x2="255.1172" y2="-391.2764" gradientTransform="matrix(4.4592 0 0 4.4592 -361.4684 2015.8567)">
	<stop  offset="0" style="stop-color:#EDE080"/>
	<stop  offset="0.3011" style="stop-color:#EDE080"/>
	<stop  offset="1" style="stop-color:#9B8430"/>
</linearGradient>
<path fill="url(#SVGID_56_)" d="M764.239,266.218c-6.246,0-18.111,4.997-20.612,5.622c-2.498,0.624-14.366,0-23.733-3.121
	c-9.37-3.123-19.365-1.874-21.862-1.874c-1.874,0-7.494,1.874-14.366,3.121v6.246c1.874,0,4.372-0.622,6.246-0.622
	c22.486-3.75,33.106-0.625,48.097-1.252c21.859,2.499,37.479,0,37.479,0v-8.12C776.11,266.218,769.864,265.593,764.239,266.218"/>
<linearGradient id="SVGID_57_" gradientUnits="userSpaceOnUse" x1="234.5166" y1="-395.1758" x2="255.1366" y2="-395.1758" gradientTransform="matrix(4.4592 0 0 4.4592 -361.4684 2015.8567)">
	<stop  offset="0" style="stop-color:#EDE080"/>
	<stop  offset="0.3011" style="stop-color:#EDE080"/>
	<stop  offset="1" style="stop-color:#9B8430"/>
</linearGradient>
<path fill="url(#SVGID_57_)" d="M749.873,251.227c-8.12,3.123-18.738,2.498-26.858,0c-8.12-2.499-15.613-1.874-19.364-1.874
	c-3.745,0-11.242,3.123-18.738,4.372v3.123l0,0c10.618,1.249,16.867,3.748,29.359,0c11.868-3.123,29.355,0,39.35,1.249
	c9.997,1.25,23.113-2.498,23.113-2.498s0-1.249,0-4.996C766.116,247.479,757.993,248.104,749.873,251.227"/>
<linearGradient id="SVGID_58_" gradientUnits="userSpaceOnUse" x1="234.5176" y1="-398.959" x2="255.1376" y2="-398.959" gradientTransform="matrix(4.4592 0 0 4.4592 -361.4684 2015.8567)">
	<stop  offset="0" style="stop-color:#EDE080"/>
	<stop  offset="0.3011" style="stop-color:#EDE080"/>
	<stop  offset="1" style="stop-color:#9B8430"/>
</linearGradient>
<path fill="url(#SVGID_58_)" d="M754.871,236.235c-6.869,1.874-20.611,0-23.733-1.25c-3.748-1.249-14.366-4.372-19.361-4.372
	c-4.999-0.625-17.491,2.499-25.611,4.997c-0.623,0-1.25,0-1.874,0.624v6.869c8.744,0,20.612-1.249,27.485-2.498
	c8.741-1.874,34.352,0,42.472,1.251c7.496,1.249,22.488-1.874,22.488-1.874v-8.744C776.11,231.24,761.744,233.737,754.871,236.235"
	/>
<linearGradient id="SVGID_59_" gradientUnits="userSpaceOnUse" x1="234.5156" y1="-403.2915" x2="255.1172" y2="-403.2915" gradientTransform="matrix(4.4592 0 0 4.4592 -361.4684 2015.8567)">
	<stop  offset="0" style="stop-color:#EDE080"/>
	<stop  offset="0.3011" style="stop-color:#EDE080"/>
	<stop  offset="1" style="stop-color:#9B8430"/>
</linearGradient>
<path fill="url(#SVGID_59_)" d="M764.239,212.5c-6.246,0-18.111,4.996-20.612,5.623c-2.498,0.624-14.366,0.624-23.733-3.122
	c-9.37-3.123-19.365-1.875-21.862-1.875c-1.874,0-7.494,1.875-14.366,3.123v6.246c1.874,0,4.372-0.625,6.246-0.625
	c22.486-3.747,33.106-0.623,48.097-1.249c21.859,3.122,37.479,0,37.479,0v-8.12C776.11,212.5,769.864,212.5,764.239,212.5"/>
<linearGradient id="SVGID_60_" gradientUnits="userSpaceOnUse" x1="234.5166" y1="-407.2222" x2="255.1366" y2="-407.2222" gradientTransform="matrix(4.4592 0 0 4.4592 -361.4684 2015.8567)">
	<stop  offset="0" style="stop-color:#EDE080"/>
	<stop  offset="0.3011" style="stop-color:#EDE080"/>
	<stop  offset="1" style="stop-color:#9B8430"/>
</linearGradient>
<path fill="url(#SVGID_60_)" d="M749.873,197.509c-8.12,3.122-18.738,2.5-26.858,0c-8.12-2.498-15.613-1.874-19.364-1.874
	c-3.745,0-11.242,3.123-18.738,4.374v3.122l0,0c10.618,1.25,16.867,3.75,29.359,0c11.868-3.122,29.355,0,39.35,1.25
	c9.997,1.249,23.113-2.498,23.113-2.498s0-1.252,0-4.997C766.116,193.762,757.993,194.384,749.873,197.509"/>
<linearGradient id="SVGID_61_" gradientUnits="userSpaceOnUse" x1="234.5176" y1="-411.0049" x2="255.1376" y2="-411.0049" gradientTransform="matrix(4.4592 0 0 4.4592 -361.4684 2015.8567)">
	<stop  offset="0" style="stop-color:#EDE080"/>
	<stop  offset="0.3011" style="stop-color:#EDE080"/>
	<stop  offset="1" style="stop-color:#9B8430"/>
</linearGradient>
<path fill="url(#SVGID_61_)" d="M754.871,182.519c-6.869,1.873-20.611,0-23.733-1.25c-3.748-1.25-14.366-4.372-19.361-4.372
	c-4.999-0.625-17.491,2.498-25.611,4.996c-0.623,0-1.25,0-1.874,0.625v6.87c8.744,0,20.612-1.25,27.485-2.498
	c8.741-1.874,34.352,0,42.472,1.249c7.496,1.25,22.488-1.874,22.488-1.874v-8.744C776.11,178.146,761.744,180.019,754.871,182.519"
	/>
<linearGradient id="SVGID_62_" gradientUnits="userSpaceOnUse" x1="234.5156" y1="-415.3384" x2="255.1172" y2="-415.3384" gradientTransform="matrix(4.4592 0 0 4.4592 -361.4684 2015.8567)">
	<stop  offset="0" style="stop-color:#EDE080"/>
	<stop  offset="0.3011" style="stop-color:#EDE080"/>
	<stop  offset="1" style="stop-color:#9B8430"/>
</linearGradient>
<path fill="url(#SVGID_62_)" d="M764.239,158.781c-6.246,0-18.111,4.997-20.612,5.624c-2.498,0.623-14.366,0-23.733-3.125
	c-9.37-3.122-19.365-1.873-21.862-1.873c-1.874,0-7.494,1.873-14.366,3.123v6.246c1.874,0,4.372-0.625,6.246-0.625
	c22.486-3.747,33.106-0.624,48.097-1.249c21.859,2.498,37.479,0,37.479,0v-8.121C776.11,158.781,769.864,158.781,764.239,158.781"/>
<linearGradient id="SVGID_63_" gradientUnits="userSpaceOnUse" x1="234.5166" y1="-419.2168" x2="255.1366" y2="-419.2168" gradientTransform="matrix(4.4592 0 0 4.4592 -361.4684 2015.8567)">
	<stop  offset="0" style="stop-color:#EDE080"/>
	<stop  offset="0.3011" style="stop-color:#EDE080"/>
	<stop  offset="1" style="stop-color:#9B8430"/>
</linearGradient>
<path fill="url(#SVGID_63_)" d="M749.873,143.79c-8.12,3.123-18.738,2.499-26.858,0c-8.12-2.497-15.613-1.875-19.364-1.875
	c-3.745,0-11.242,3.123-18.738,4.374v3.123l0,0c10.618,1.249,16.867,3.747,29.359,0c11.868-3.123,29.355,0,39.35,1.249
	c9.997,1.25,23.113-2.497,23.113-2.497s0-1.252,0-4.997C766.116,140.668,757.993,141.293,749.873,143.79"/>
<linearGradient id="SVGID_64_" gradientUnits="userSpaceOnUse" x1="234.5176" y1="-423.0518" x2="255.1376" y2="-423.0518" gradientTransform="matrix(4.4592 0 0 4.4592 -361.4684 2015.8567)">
	<stop  offset="0" style="stop-color:#EDE080"/>
	<stop  offset="0.3011" style="stop-color:#EDE080"/>
	<stop  offset="1" style="stop-color:#9B8430"/>
</linearGradient>
<path fill="url(#SVGID_64_)" d="M754.871,128.8c-6.869,1.874-20.611,0-23.733-1.25c-3.748-1.249-14.366-4.372-19.361-4.372
	c-4.999-0.624-17.491,2.498-25.611,4.997c-0.623,0-1.25,0-1.874,0.624v6.87c8.744,0,20.612-1.249,27.485-2.497
	c8.741-1.874,34.352,0,42.472,1.249c7.496,1.249,22.488-1.874,22.488-1.874v-8.746C776.11,124.428,761.744,126.926,754.871,128.8"/>
<linearGradient id="SVGID_65_" gradientUnits="userSpaceOnUse" x1="234.5156" y1="-427.2754" x2="255.1172" y2="-427.2754" gradientTransform="matrix(4.4592 0 0 4.4592 -361.4684 2015.8567)">
	<stop  offset="0" style="stop-color:#EDE080"/>
	<stop  offset="0.3011" style="stop-color:#EDE080"/>
	<stop  offset="1" style="stop-color:#9B8430"/>
</linearGradient>
<path fill="url(#SVGID_65_)" d="M764.239,105.69c-6.246,0-18.111,4.994-20.612,5.621c-2.498,0.625-14.366,0-23.733-3.122
	c-9.37-3.123-19.365-1.875-21.862-1.875c-1.874,0-7.494,1.875-14.366,3.123v6.246c1.874,0,4.372-0.624,6.246-0.624
	c22.486-3.749,33.106-0.624,48.097-1.249c21.859,3.122,37.479,0,37.479,0v-8.12C776.11,105.69,769.864,105.065,764.239,105.69"/>
<linearGradient id="SVGID_66_" gradientUnits="userSpaceOnUse" x1="234.5166" y1="-431.1753" x2="255.1366" y2="-431.1753" gradientTransform="matrix(4.4592 0 0 4.4592 -361.4684 2015.8567)">
	<stop  offset="0" style="stop-color:#EDE080"/>
	<stop  offset="0.3011" style="stop-color:#EDE080"/>
	<stop  offset="1" style="stop-color:#9B8430"/>
</linearGradient>
<path fill="url(#SVGID_66_)" d="M749.873,90.699c-8.12,3.122-18.738,2.498-26.858,0c-8.12-2.5-15.613-1.874-19.364-1.874
	c-3.745,0-11.242,3.122-18.738,4.372v3.122l0,0c10.618,1.25,16.867,3.748,29.359,0c11.868-3.122,29.355,0,39.35,1.25
	c9.997,1.25,23.113-2.498,23.113-2.498s0-1.25,0-4.997C766.116,86.95,757.993,87.574,749.873,90.699"/>
<linearGradient id="SVGID_67_" gradientUnits="userSpaceOnUse" x1="234.5176" y1="-435.0889" x2="255.1376" y2="-435.0889" gradientTransform="matrix(4.4592 0 0 4.4592 -361.4684 2015.8567)">
	<stop  offset="0" style="stop-color:#EDE080"/>
	<stop  offset="0.3011" style="stop-color:#EDE080"/>
	<stop  offset="1" style="stop-color:#9B8430"/>
</linearGradient>
<path fill="url(#SVGID_67_)" d="M754.871,75.081c-6.869,1.874-20.611,0-23.733-1.249c-3.748-1.249-14.366-4.372-19.361-4.372
	c-4.999,0-17.491,2.498-25.611,4.997c-0.623,0-1.25,0-1.874,0.623v6.871c8.744,0,20.612-1.249,27.485-2.498
	c8.741-1.874,34.352,0,42.472,1.25c7.496,1.249,22.488-1.874,22.488-1.874v-8.122C776.11,70.709,761.744,73.208,754.871,75.081"/>
<linearGradient id="SVGID_68_" gradientUnits="userSpaceOnUse" x1="234.5156" y1="-439.3223" x2="255.1172" y2="-439.3223" gradientTransform="matrix(4.4592 0 0 4.4592 -361.4684 2015.8567)">
	<stop  offset="0" style="stop-color:#EDE080"/>
	<stop  offset="0.3011" style="stop-color:#EDE080"/>
	<stop  offset="1" style="stop-color:#9B8430"/>
</linearGradient>
<path fill="url(#SVGID_68_)" d="M764.239,51.97c-6.246,0-18.111,4.997-20.612,5.624c-2.498,0.622-14.366,0.622-23.733-3.123
	c-9.37-3.122-19.365-1.875-21.862-1.875c-1.874,0-7.494,1.875-14.366,3.123v6.246c1.874,0,4.372-0.624,6.246-0.624
	c22.486-3.748,33.106-0.625,48.097-1.25c21.859,3.122,37.479,0,37.479,0V51.97C776.11,51.97,769.864,51.347,764.239,51.97"/>
<linearGradient id="SVGID_69_" gradientUnits="userSpaceOnUse" x1="173.5615" y1="-439.291" x2="194.1819" y2="-439.291" gradientTransform="matrix(4.4592 0 0 4.4592 -361.4684 2015.8567)">
	<stop  offset="0" style="stop-color:#EDE080"/>
	<stop  offset="0.3011" style="stop-color:#EDE080"/>
	<stop  offset="1" style="stop-color:#9B8430"/>
</linearGradient>
<path fill="url(#SVGID_69_)" d="M466.917,53.221c-11.865,3.747-19.362,3.747-28.732,1.249c-12.492-3.749-21.86-1.875-26.234-0.625
	v6.871c6.87,1.875,18.114,1.875,24.987,0.625c7.494-1.874,18.738-2.5,23.733-1.25c4.996,1.874,19.989,3.122,31.23,0.624
	c3.751-0.624,7.496-1.249,11.871-1.874v-3.122c-4.999-0.625-8.12-1.25-9.997-1.25C489.406,53.844,478.788,49.473,466.917,53.221"/>
<linearGradient id="SVGID_70_" gradientUnits="userSpaceOnUse" x1="173.5615" y1="-379.1377" x2="194.1806" y2="-379.1377" gradientTransform="matrix(4.4592 0 0 4.4592 -361.4684 2015.8567)">
	<stop  offset="0" style="stop-color:#EDE080"/>
	<stop  offset="0.3011" style="stop-color:#EDE080"/>
	<stop  offset="1" style="stop-color:#9B8430"/>
</linearGradient>
<path fill="url(#SVGID_70_)" d="M437.561,329.306c7.497-1.874,18.738-3.121,23.737-1.249c4.996,1.873,19.985,3.122,31.23,1.249
	c3.748-0.625,7.496-1.249,11.868-1.874v-3.748c-4.996-0.624-8.12-1.25-9.994-1.25c-4.996-0.624-15.614-4.372-27.485-0.624
	c-11.865,3.748-19.362,3.748-28.732,1.25c-12.492-3.748-21.86-1.874-26.234-0.625v6.871
	C419.45,330.554,430.691,330.554,437.561,329.306"/>
<linearGradient id="SVGID_71_" gradientUnits="userSpaceOnUse" x1="173.584" y1="-447.2056" x2="255.2485" y2="-447.2056" gradientTransform="matrix(4.4592 0 0 4.4592 -361.4684 2015.8567)">
	<stop  offset="0" style="stop-color:#EDE080"/>
	<stop  offset="0.3011" style="stop-color:#EDE080"/>
	<stop  offset="1" style="stop-color:#9B8430"/>
</linearGradient>
<path fill="url(#SVGID_71_)" d="M776.734,41.352c0,0-0.624-9.994-9.994-9.994h-15.614l-9.997-4.996L693.659,2l-56.844,29.357
	h-84.949L495.025,2l-47.473,24.361l-9.368,4.996h-15.617c-9.368,0-9.991,9.994-9.991,9.994l0,0l0,0H776.734L776.734,41.352
	L776.734,41.352"/>
<linearGradient id="SVGID_72_" gradientUnits="userSpaceOnUse" x1="157.8955" y1="-374.1558" x2="271.0783" y2="-374.1558" gradientTransform="matrix(4.4592 0 0 4.4592 -361.4684 2015.8567)">
	<stop  offset="0" style="stop-color:#EDE080"/>
	<stop  offset="0.3011" style="stop-color:#EDE080"/>
	<stop  offset="1" style="stop-color:#9B8430"/>
</linearGradient>
<path fill="url(#SVGID_72_)" d="M846.693,352.417c0,0-0.627-9.994-9.994-9.994c-161.154,0-322.933,0-484.086,0
	c-9.369,0-9.994,9.994-9.994,9.994l0,0l0,0C510.642,352.417,678.669,352.417,846.693,352.417L846.693,352.417L846.693,352.417"/>
<linearGradient id="SVGID_73_" gradientUnits="userSpaceOnUse" x1="79.6812" y1="-346.5181" x2="101.0901" y2="-364.7939" gradientTransform="matrix(4.4592 0 0 4.4592 -361.4684 2015.8567)">
	<stop  offset="0" style="stop-color:#EDE080"/>
	<stop  offset="0.3011" style="stop-color:#EDE080"/>
	<stop  offset="1" style="stop-color:#9B8430"/>
</linearGradient>
<path fill="url(#SVGID_73_)" d="M32.179,407.384h8.745c8.12,0,14.366,2.499,18.74,7.495c4.372,4.997,6.87,11.869,6.87,19.99
	c0,8.119-2.498,14.99-6.87,19.988c-4.374,4.996-11.245,7.496-18.74,7.496h-8.745V407.384z M5.945,384.897v99.94h38.728
	c14.366,0,26.858-4.373,36.229-13.117c9.368-9.37,14.366-21.237,14.366-36.229c0-14.99-4.997-27.481-14.366-36.854
	c-9.371-8.744-21.237-13.117-36.229-13.117H5.945V384.897z"/>
</svg>
